<svg width="32" height="32" viewBox="0 0 32 32" fill="none" xmlns="http://www.w3.org/2000/svg">
<g clip-path="url(#clip0_6_398)">
<path d="M14.7692 14.7692H17.2308V17.2308H14.7692V14.7692Z" fill="#C757C7"/>
<path d="M9.84616 12.3077H12.3077V14.7692H9.84616V12.3077Z" fill="#C757C7"/>
<path d="M2.46153 7.38461H4.92307V9.84615H2.46153V7.38461Z" fill="#5A1A5A"/>
<path d="M7.38461 2.46153H9.84615V4.92307H7.38461V2.46153Z" fill="#7B2B7B"/>
<path d="M2.46153 2.46153H4.92307V4.92307H2.46153V2.46153Z" fill="#7B2B7B"/>
<path d="M4.92308 0H7.38462V2.46154H4.92308V0Z" fill="#7B2B7B"/>
<path d="M2.46153 0H4.92307V2.46154H2.46153V0Z" fill="#7B2B7B"/>
<path d="M27.0769 17.2308H29.5385V19.6923H27.0769V17.2308Z" fill="#5A1A5A"/>
<path d="M9.84616 2.46153H12.3077V4.92307H9.84616V2.46153Z" fill="#7B2B7B"/>
<path d="M4.92308 2.46153H7.38462V4.92307H4.92308V2.46153Z" fill="#C757C7"/>
<path d="M0 4.92308H2.46154V7.38462H0V4.92308Z" fill="#3D1240"/>
<path d="M2.46153 4.92308H4.92307V7.38462H2.46153V4.92308Z" fill="#7B2B7B"/>
<path d="M4.92308 4.92308H7.38462V7.38462H4.92308V4.92308Z" fill="#E85CE8"/>
<path d="M7.38461 4.92308H9.84615V7.38462H7.38461V4.92308Z" fill="#E85CE8"/>
<path d="M9.84616 4.92308H12.3077V7.38462H9.84616V4.92308Z" fill="#E85CE8"/>
<path d="M12.3077 4.92308H14.7692V7.38462H12.3077V4.92308Z" fill="#7B2B7B"/>
<path d="M14.7692 4.92308H17.2308V7.38462H14.7692V4.92308Z" fill="#7B2B7B"/>
<path d="M4.92308 7.38461H7.38462V9.84615H4.92308V7.38461Z" fill="#E85CE8"/>
<path d="M7.38461 7.38461H9.84615V9.84615H7.38461V7.38461Z" fill="#E85CE8"/>
<path d="M9.84616 7.38461H12.3077V9.84615H9.84616V7.38461Z" fill="#C757C7"/>
<path d="M12.3077 7.38461H14.7692V9.84615H12.3077V7.38461Z" fill="#E85CE8"/>
<path d="M2.46153 9.84616H4.92307V12.3077H2.46153V9.84616Z" fill="#5A1A5A"/>
<path d="M4.92308 9.84616H7.38462V12.3077H4.92308V9.84616Z" fill="#B547B5"/>
<path d="M7.38461 9.84616H9.84615V12.3077H7.38461V9.84616Z" fill="#C757C7"/>
<path d="M9.84616 9.84616H12.3077V12.3077H9.84616V9.84616Z" fill="#E85CE8"/>
<path d="M12.3077 9.84616H14.7692V12.3077H12.3077V9.84616Z" fill="#E85CE8"/>
<path d="M4.92308 12.3077H7.38462V14.7692H4.92308V12.3077Z" fill="#5A1A5A"/>
<path d="M7.38461 12.3077H9.84615V14.7692H7.38461V12.3077Z" fill="#C757C7"/>
<path d="M4.92308 14.7692H7.38462V17.2308H4.92308V14.7692Z" fill="#5A1A5A"/>
<path d="M7.38461 14.7692H9.84615V17.2308H7.38461V14.7692Z" fill="#B547B5"/>
<path d="M7.38461 17.2308H9.84615V19.6923H7.38461V17.2308Z" fill="#5A1A5A"/>
<path d="M7.38461 19.6923H9.84615V22.1538H7.38461V19.6923Z" fill="#5A1A5A"/>
<path d="M9.84616 14.7692H12.3077V17.2308H9.84616V14.7692Z" fill="#C757C7"/>
<path d="M9.84616 17.2308H12.3077V19.6923H9.84616V17.2308Z" fill="#B547B5"/>
<path d="M9.84616 19.6923H12.3077V22.1538H9.84616V19.6923Z" fill="#9A3A9A"/>
<path d="M9.84616 22.1538H12.3077V24.6154H9.84616V22.1538Z" fill="#5A1A5A"/>
<path d="M9.84616 24.6154H12.3077V27.0769H9.84616V24.6154Z" fill="#5A1A5A"/>
<path d="M12.3077 27.0769H14.7692V29.5385H12.3077V27.0769Z" fill="#5A1A5A"/>
<path d="M12.3077 24.6154H14.7692V27.0769H12.3077V24.6154Z" fill="#9A3A9A"/>
<path d="M12.3077 22.1538H14.7692V24.6154H12.3077V22.1538Z" fill="#B547B5"/>
<path d="M12.3077 19.6923H14.7692V22.1538H12.3077V19.6923Z" fill="#C757C7"/>
<path d="M12.3077 17.2308H14.7692V19.6923H12.3077V17.2308Z" fill="#C757C7"/>
<path d="M12.3077 14.7692H14.7692V17.2308H12.3077V14.7692Z" fill="#B547B5"/>
<path d="M12.3077 12.3077H14.7692V14.7692H12.3077V12.3077Z" fill="#C757C7"/>
<path d="M14.7692 7.38461H17.2308V9.84615H14.7692V7.38461Z" fill="#E85CE8"/>
<path d="M17.2308 7.38461H19.6923V9.84615H17.2308V7.38461Z" fill="#7B2B7B"/>
<path d="M19.6923 7.38461H22.1538V9.84615H19.6923V7.38461Z" fill="#7B2B7B"/>
<path d="M14.7692 9.84616H17.2308V12.3077H14.7692V9.84616Z" fill="#B547B5"/>
<path d="M17.2308 9.84616H19.6923V12.3077H17.2308V9.84616Z" fill="#7B2B7B"/>
<path d="M14.7692 12.3077H17.2308V14.7692H14.7692V12.3077Z" fill="#9A3A9A"/>
<path d="M17.2308 12.3077H19.6923V14.7692H17.2308V12.3077Z" fill="#E85CE8"/>
<path d="M19.6923 12.3077H22.1538V14.7692H19.6923V12.3077Z" fill="#E85CE8"/>
<path d="M17.2308 14.7692H19.6923V17.2308H17.2308V14.7692Z" fill="#E85CE8"/>
<path d="M14.7692 17.2308H17.2308V19.6923H14.7692V17.2308Z" fill="#C757C7"/>
<path d="M14.7692 19.6923H17.2308V22.1538H14.7692V19.6923Z" fill="#C757C7"/>
<path d="M14.7692 22.1538H17.2308V24.6154H14.7692V22.1538Z" fill="#C757C7"/>
<path d="M14.7692 24.6154H17.2308V27.0769H14.7692V24.6154Z" fill="#B547B5"/>
<path d="M14.7692 27.0769H17.2308V29.5385H14.7692V27.0769Z" fill="#9A3A9A"/>
<path d="M14.7692 29.5385H17.2308V32H14.7692V29.5385Z" fill="#5A1A5A"/>
<path d="M17.2308 29.5385H19.6923V32H17.2308V29.5385Z" fill="#5A1A5A"/>
<path d="M17.2308 27.0769H19.6923V29.5385H17.2308V27.0769Z" fill="#9A3A9A"/>
<path d="M17.2308 24.6154H19.6923V27.0769H17.2308V24.6154Z" fill="#9A3A9A"/>
<path d="M17.2308 22.1538H19.6923V24.6154H17.2308V22.1538Z" fill="#C757C7"/>
<path d="M17.2308 19.6923H19.6923V22.1538H17.2308V19.6923Z" fill="#B547B5"/>
<path d="M17.2308 17.2308H19.6923V19.6923H17.2308V17.2308Z" fill="#C757C7"/>
<path d="M19.6923 27.0769H22.1538V29.5385H19.6923V27.0769Z" fill="#5A1A5A"/>
<path d="M19.6923 24.6154H22.1538V27.0769H19.6923V24.6154Z" fill="#9A3A9A"/>
<path d="M22.1538 24.6154H24.6154V27.0769H22.1538V24.6154Z" fill="#5A1A5A"/>
<path d="M19.6923 22.1538H22.1538V24.6154H19.6923V22.1538Z" fill="#B547B5"/>
<path d="M19.6923 19.6923H22.1538V22.1538H19.6923V19.6923Z" fill="#C757C7"/>
<path d="M19.6923 17.2308H22.1538V19.6923H19.6923V17.2308Z" fill="#E85CE8"/>
<path d="M19.6923 14.7692H22.1538V17.2308H19.6923V14.7692Z" fill="#E85CE8"/>
<path d="M27.0769 14.7692H29.5385V17.2308H27.0769V14.7692Z" fill="#5A1A5A"/>
<path d="M27.0769 12.3077H29.5385V14.7692H27.0769V12.3077Z" fill="#7B2B7B"/>
<path d="M29.5385 12.3077H32V14.7692H29.5385V12.3077Z" fill="#5A1A5A"/>
<path d="M24.6154 17.2308H27.0769V19.6923H24.6154V17.2308Z" fill="#9A3A9A"/>
<path d="M24.6154 19.6923H27.0769V22.1538H24.6154V19.6923Z" fill="#5A1A5A"/>
<path d="M24.6154 22.1538H27.0769V24.6154H24.6154V22.1538Z" fill="#5A1A5A"/>
<path d="M22.1538 22.1538H24.6154V24.6154H22.1538V22.1538Z" fill="#9A3A9A"/>
<path d="M19.6923 9.84616H22.1538V12.3077H19.6923V9.84616Z" fill="#B547B5"/>
<path d="M22.1538 9.84616H24.6154V12.3077H22.1538V9.84616Z" fill="#7B2B7B"/>
<path d="M24.6154 9.84616H27.0769V12.3077H24.6154V9.84616Z" fill="#7B2B7B"/>
<path d="M22.1538 12.3077H24.6154V14.7692H22.1538V12.3077Z" fill="#C757C7"/>
<path d="M24.6154 12.3077H27.0769V14.7692H24.6154V12.3077Z" fill="#E85CE8"/>
<path d="M24.6154 14.7692H27.0769V17.2308H24.6154V14.7692Z" fill="#B547B5"/>
<path d="M22.1538 14.7692H24.6154V17.2308H22.1538V14.7692Z" fill="#E85CE8"/>
<path d="M22.1538 17.2308H24.6154V19.6923H22.1538V17.2308Z" fill="#E85CE8"/>
<path d="M22.1538 19.6923H24.6154V22.1538H22.1538V19.6923Z" fill="#B547B5"/>
</g>
<defs>
<clipPath id="clip0_6_398">
<rect width="32" height="32" fill="white"/>
</clipPath>
</defs>
</svg>
